<svg width="32" height="32" viewBox="0 0 32 32" fill="none" xmlns="http://www.w3.org/2000/svg">
<g clip-path="url(#clip0_120_3985)">
<mask id="mask0_120_3985" style="mask-type:luminance" maskUnits="userSpaceOnUse" x="0" y="0" width="32" height="32">
<path d="M32 0H0V32H32V0Z" fill="white"/>
</mask>
<g mask="url(#mask0_120_3985)">
<path d="M29.0265 2.97456C28.6265 2.57456 27.9732 2.57456 27.5732 2.97456L2.97319 27.5879C2.57319 27.9879 2.57319 28.6413 2.97319 29.0413C3.17319 29.2279 3.42652 29.3346 3.69319 29.3346C3.95985 29.3346 4.21319 29.2279 4.41319 29.028L29.0265 4.41456C29.4399 4.01456 29.4399 3.37456 29.0265 2.97456Z" fill="white"/>
<path d="M19.76 4.69458V12.2412L12.24 19.7613V17.708H8.12002C6.25335 17.708 5.73335 16.5613 6.97335 15.1613L16 4.89458L17.0667 3.68125C18.5467 2.00125 19.76 2.45458 19.76 4.69458Z" fill="white"/>
<path d="M25.0266 16.8411L15.9999 27.1078L14.9332 28.3211C13.4532 30.0011 12.2399 29.5478 12.2399 27.3078V23.7611L21.7066 14.2944H23.8799C25.7466 14.2944 26.2666 15.4411 25.0266 16.8411Z" fill="white"/>
</g>
</g>
<defs>
<clipPath id="clip0_120_3985">
<rect width="32" height="32" fill="white"/>
</clipPath>
</defs>
</svg>
